<?xml version="1.0" encoding="utf-8"?>
<svg width="256" height="256" viewBox="0 0 256 256" fill="none" xmlns="http://www.w3.org/2000/svg">
  <g>
    <path d="M49.5692 0C49.5692 0 97.5692 0 97.5692 0C97.5692 0 145.569 104 145.569 104C149.569 112 145.569 120 137.569 120C137.569 120 9.56922 120 9.56922 120C1.56922 120 -2.43078 112 1.56922 104C1.56922 104 49.5692 0 49.5692 0Z" fill="#A3E635" transform="translate(54.431 120)" />
    <path d="M0 12C0 5.37259 5.37258 0 12 0C18.6274 0 24 5.37259 24 12C24 18.6274 18.6274 24 12 24C5.37258 24 0 18.6274 0 12Z" fill="#FFFFFF" fill-rule="evenodd" transform="translate(116 188)" />
    <path d="M0 8C0 3.58173 3.58172 0 8 0C12.4183 0 16 3.58173 16 8C16 12.4183 12.4183 16 8 16C3.58172 16 0 12.4183 0 8Z" fill="#FFFFFF" fill-rule="evenodd" transform="translate(92 172)" />
    <path d="M0 8C0 3.58173 3.58173 0 8 0C12.4183 0 16 3.58173 16 8C16 12.4183 12.4183 16 8 16C3.58173 16 0 12.4183 0 8Z" fill="#FFFFFF" fill-rule="evenodd" transform="translate(144 152)" />
    <path d="M0 8C0 3.58172 3.58172 0 8 0C12.4183 0 16 3.58172 16 8C16 12.4183 12.4183 16 8 16C3.58172 16 0 12.4183 0 8Z" fill="#A3E635" fill-rule="evenodd" transform="translate(120 92)" />
    <path d="M58.1279 0C58.1279 0 122.128 0 122.128 0L122.128 80C122.128 80 178.128 200 178.128 200C186.128 216 170.128 224 154.128 224C154.128 224 26.1279 224 26.1279 224C10.1279 224 -5.87211 216 2.12789 200C2.12789 200 58.1279 80 58.1279 80C58.1279 80 58.1279 0 58.1279 0Z" fill="none" stroke-width="2" stroke="#DDDDDD" transform="translate(37.872 24)" />
    <path d="M0 8L0 4C0 2.89543 0.390526 1.95262 1.17157 1.17157C1.95262 0.390524 2.89543 0 4 0L76 0C77.1046 0 78.0474 0.390524 78.8284 1.17157C79.6095 1.95262 80 2.89543 80 4L80 12C80 13.1046 79.6095 14.0474 78.8284 14.8284C78.0474 15.6095 77.1046 16 76 16L4 16C2.89543 16 1.95262 15.6095 1.17157 14.8284C0.390526 14.0474 0 13.1046 0 12L0 8Z" fill="#AAAAAA" fill-rule="evenodd" transform="translate(88 16)" />
  </g>
</svg>