<?xml version="1.0" encoding="utf-8"?>
<svg width="64" height="65" viewBox="0 0 64 65" fill="none" xmlns="http://www.w3.org/2000/svg">
  <g transform="translate(0 1)">
    <rect width="24" height="16" fill="#4A5568" fill-rule="evenodd" stroke-width="2" stroke="#2D3748" transform="translate(20 0)" />
    <rect width="8" height="10" fill="#718096" fill-rule="evenodd" transform="translate(28 9)" />
    <path d="M0 0L12 0L8 8L4 8L0 0Z" fill="#2D3748" transform="translate(26 19)" />
    <path d="M1 0L1 13.3248" fill="none" stroke-width="3" stroke="#A3E635" stroke-linecap="round" transform="translate(31 26.675)" />
    <g transform="translate(24 36)">
      <path d="M0 4L0 2C0 1.44772 0.195262 0.976311 0.585786 0.585786C0.976311 0.195262 1.44772 0 2 0L14 0C14.5523 0 15.0237 0.195262 15.4142 0.585786C15.8047 0.976311 16 1.44772 16 2L16 22C16 22.5523 15.8047 23.0237 15.4142 23.4142C15.0237 23.8047 14.5523 24 14 24L2 24C1.44772 24 0.976311 23.8047 0.585786 23.4142C0.195262 23.0237 0 22.5523 0 22L0 4Z" fill="#111111" fill-rule="evenodd" stroke-width="2" stroke="#000000" />
      <path d="M0 0L2 6L1 12" fill="none" stroke-width="2" stroke="#A3E635" stroke-linecap="round" transform="translate(4 6)" />
      <path d="M0 0L0 6L0 14" fill="none" stroke-width="2" stroke="#A3E635" stroke-linecap="round" transform="translate(8 5)" />
      <path d="M2 0L0 6L1 12" fill="none" stroke-width="2" stroke="#A3E635" stroke-linecap="round" transform="translate(10 6)" />
    </g>
    <g transform="translate(46 36)">
      <path d="M0 4L0 2C0 1.44772 0.195262 0.976311 0.585786 0.585786C0.976311 0.195262 1.44772 0 2 0L14 0C14.5523 0 15.0237 0.195262 15.4142 0.585786C15.8047 0.976311 16 1.44772 16 2L16 22C16 22.5523 15.8047 23.0237 15.4142 23.4142C15.0237 23.8047 14.5523 24 14 24L2 24C1.44772 24 0.976311 23.8047 0.585786 23.4142C0.195262 23.0237 0 22.5523 0 22L0 4Z" fill="#111111" fill-rule="evenodd" stroke-width="2" stroke="#000000" />
      <path d="M0 0L2 6L1 12" fill="none" stroke-width="2" stroke="#A3E635" stroke-linecap="round" transform="translate(4 6)" />
      <path d="M0 0L0 6L0 14" fill="none" stroke-width="2" stroke="#A3E635" stroke-linecap="round" transform="translate(8 5)" />
      <path d="M2 0L0 6L1 12" fill="none" stroke-width="2" stroke="#A3E635" stroke-linecap="round" transform="translate(10 6)" />
    </g>
    <g transform="translate(2 36)">
      <path d="M0 4L0 2C0 1.44772 0.195262 0.976311 0.585786 0.585786C0.976311 0.195262 1.44772 0 2 0L14 0C14.5523 0 15.0237 0.195262 15.4142 0.585786C15.8047 0.976311 16 1.44772 16 2L16 22C16 22.5523 15.8047 23.0237 15.4142 23.4142C15.0237 23.8047 14.5523 24 14 24L2 24C1.44772 24 0.976311 23.8047 0.585786 23.4142C0.195262 23.0237 0 22.5523 0 22L0 4Z" fill="#111111" fill-rule="evenodd" stroke-width="2" stroke="#000000" />
      <path d="M0 0L2 6L1 12" fill="none" stroke-width="2" stroke="#A3E635" stroke-linecap="round" transform="translate(4 6)" />
      <path d="M0 0L0 6L0 14" fill="none" stroke-width="2" stroke="#A3E635" stroke-linecap="round" transform="translate(8 5)" />
      <path d="M2 0L0 6L1 12" fill="none" stroke-width="2" stroke="#A3E635" stroke-linecap="round" transform="translate(10 6)" />
    </g>
    <path d="M61 0C62.6571 0 64 1.34292 64 3L64 5C64 6.65708 62.6571 8 61 8L3 8C1.34292 8 0 6.65708 0 5L0 3C0 1.34292 1.34292 0 3 0L61 0Z" fill="#2D3748" transform="translate(0 56)" />
    <path d="M0 2C0 0.895432 0.895431 0 2 0C3.10457 0 4 0.895432 4 2C4 3.10457 3.10457 4 2 4C0.895431 4 0 3.10457 0 2Z" fill="#718096" fill-rule="evenodd" transform="translate(6 58)" />
    <path d="M0 2C0 0.895432 0.89543 0 2 0C3.10457 0 4 0.895432 4 2C4 3.10457 3.10457 4 2 4C0.89543 4 0 3.10457 0 2Z" fill="#718096" fill-rule="evenodd" transform="translate(22 58)" />
    <path d="M0 2C0 0.895432 0.895432 0 2 0C3.10457 0 4 0.895432 4 2C4 3.10457 3.10457 4 2 4C0.895432 4 0 3.10457 0 2Z" fill="#718096" fill-rule="evenodd" transform="translate(38 58)" />
    <path d="M0 2C0 0.895432 0.895432 0 2 0C3.10457 0 4 0.895432 4 2C4 3.10457 3.10457 4 2 4C0.895432 4 0 3.10457 0 2Z" fill="#718096" fill-rule="evenodd" transform="translate(54 58)" />
  </g>
</svg>