<?xml version="1.0" encoding="utf-8"?>
<svg width="138.125" height="112.375" viewBox="0 0 138.125 112.375" fill="none" xmlns="http://www.w3.org/2000/svg">
  <g transform="translate(1 1)">
    <path d="M0 105.188C0 105.188 30.9375 0 30.9375 0L105.188 0L136.125 105.188C136.125 105.188 0 105.188 0 105.188Z" fill="#4A5568" stroke-width="2" stroke="#2D3748" />
    <path d="M0 86.625C0 86.625 0 24.75 0 24.75C0 12.375 12.375 0 30.9375 0C49.5 0 61.875 12.375 61.875 24.75C61.875 24.75 61.875 86.625 61.875 86.625L0 86.625Z" fill="#1A202C" transform="translate(37.125 18.563)" />
    <rect width="12.375" height="61.875" fill="#8B4513" fill-rule="evenodd" transform="translate(30.938 43.313)" />
    <rect width="12.375" height="61.875" fill="#8B4513" fill-rule="evenodd" transform="translate(92.813 43.313)" />
    <rect width="74.25" height="12.375" fill="#8B4513" fill-rule="evenodd" transform="translate(30.938 43.313)" />
    <path d="M0 6.1875L0 3.09375C0 2.23943 0.302048 1.51023 0.906139 0.906136C1.51023 0.302048 2.23943 0 3.09375 0L34.0313 0C34.8856 0 35.6148 0.302048 36.2189 0.906136C36.823 1.51023 37.125 2.23943 37.125 3.09375L37.125 21.6563C37.125 22.5106 36.823 23.2398 36.2189 23.8439C35.6148 24.448 34.8856 24.75 34.0313 24.75L3.09375 24.75C2.23943 24.75 1.51023 24.448 0.906139 23.8439C0.302048 23.2398 0 22.5106 0 21.6563L0 6.1875Z" fill="#4A5568" fill-rule="evenodd" transform="translate(49.5 74.25)" />
    <path d="M0 6.1875C0 2.77024 2.77024 0 6.1875 0C9.60476 0 12.375 2.77024 12.375 6.1875C12.375 9.60476 9.60476 12.375 6.1875 12.375C2.77024 12.375 0 9.60476 0 6.1875Z" fill="#888888" fill-rule="evenodd" transform="translate(49.5 99)" />
    <path d="M0 6.1875C0 2.77024 2.77024 0 6.1875 0C9.60476 0 12.375 2.77024 12.375 6.1875C12.375 9.60476 9.60476 12.375 6.1875 12.375C2.77024 12.375 0 9.60476 0 6.1875Z" fill="#888888" fill-rule="evenodd" transform="translate(74.25 99)" />
    <g fill="#000000" transform="translate(52.594 58.781)">
      <path d="M0 15.4688L6.1875 3.09375L15.4688 9.28125L24.75 0L30.9375 15.4688L0 15.4688Z" />
      <path d="M15.4688 9.28125L7.02602 3.65277L6.1875 3.09375L5.7368 3.99514L0.5 14.4688L0 15.4688L30.9375 15.4688L30.5375 14.4688L25.1541 1.01015L24.75 0L23.9807 0.769306L15.4688 9.28125ZM24.3848 1.77946L15.5962 10.568L6.57533 4.55415L1.61803 14.4688L29.4605 14.4688L24.3848 1.77946Z" fill="#808080" fill-rule="evenodd" />
    </g>
  </g>
</svg>