<?xml version="1.0" encoding="utf-8"?>
<svg width="202" height="178" viewBox="0 0 202 178" fill="none" xmlns="http://www.w3.org/2000/svg">
  <g transform="translate(5 5)">
    <g fill="#1F1F1F">
      <path d="M48 0L156 24L192 132L72 168L0 108L48 0Z" />
      <path d="M157.085 19.1191L49.0847 -4.88094Q48.8754 -4.92744 48.6629 -4.95586Q48.4504 -4.98429 48.2362 -4.99442Q48.0221 -5.00455 47.8079 -4.99631Q47.5936 -4.98807 47.3809 -4.96152Q47.1681 -4.93498 46.9585 -4.89032Q46.7488 -4.84566 46.5437 -4.78322Q46.3386 -4.72077 46.1396 -4.641Q45.9406 -4.56123 45.7492 -4.46472Q45.5577 -4.36821 45.3753 -4.25567Q45.1928 -4.14313 45.0206 -4.01538Q44.8484 -3.88763 44.6878 -3.74562Q44.5272 -3.6036 44.3794 -3.44835Q44.2315 -3.29311 44.0975 -3.12578Q43.9635 -2.95845 43.8443 -2.78027Q43.7251 -2.60208 43.6215 -2.41434Q43.518 -2.2266 43.4309 -2.03069L-4.56906 105.969Q-4.65124 106.154 -4.71821 106.345Q-4.78518 106.536 -4.8365 106.732Q-4.88782 106.928 -4.92316 107.127Q-4.9585 107.326 -4.97762 107.527Q-4.99674 107.729 -4.99953 107.931Q-5.00231 108.134 -4.98874 108.335Q-4.97516 108.537 -4.94532 108.737Q-4.91548 108.938 -4.86956 109.135Q-4.82365 109.332 -4.76196 109.524Q-4.70027 109.717 -4.62321 109.904Q-4.54615 110.091 -4.45422 110.272Q-4.3623 110.452 -4.25611 110.624Q-4.14992 110.796 -4.03016 110.959Q-3.9104 111.122 -3.77785 111.275Q-3.6453 111.428 -3.50083 111.57Q-3.35637 111.712 -3.20092 111.841L68.7991 171.841Q69.0361 172.039 69.2957 172.206Q69.5552 172.372 69.8333 172.506Q70.1114 172.64 70.4039 172.738Q70.6963 172.837 70.9986 172.899Q71.3009 172.96 71.6086 172.985Q71.9162 173.009 72.2245 172.995Q72.5327 172.981 72.837 172.929Q73.1412 172.878 73.4367 172.789L193.437 136.789Q193.509 136.767 193.581 136.743Q193.698 136.705 193.812 136.66Q193.926 136.616 194.038 136.566Q194.151 136.516 194.26 136.46Q194.37 136.405 194.476 136.344Q194.583 136.283 194.686 136.217Q194.79 136.151 194.89 136.08Q194.99 136.009 195.087 135.933Q195.183 135.858 195.276 135.777Q195.369 135.697 195.457 135.612Q195.546 135.527 195.63 135.438Q195.715 135.349 195.795 135.256Q195.875 135.163 195.95 135.066Q196.025 134.969 196.096 134.868Q196.166 134.768 196.231 134.664Q196.297 134.56 196.357 134.453Q196.417 134.346 196.472 134.236Q196.527 134.126 196.576 134.014Q196.626 133.902 196.67 133.787Q196.714 133.672 196.752 133.556Q196.79 133.439 196.822 133.321Q196.855 133.202 196.881 133.082Q196.908 132.963 196.929 132.842Q196.949 132.721 196.964 132.599Q196.979 132.477 196.987 132.354Q196.996 132.232 196.999 132.109Q197.001 131.987 196.998 131.864Q196.995 131.741 196.985 131.619Q196.976 131.496 196.961 131.375Q196.945 131.253 196.924 131.132Q196.903 131.011 196.876 130.891Q196.848 130.772 196.815 130.654Q196.782 130.535 196.743 130.419L160.743 22.4189Q160.641 22.113 160.501 21.8227Q160.361 21.5324 160.184 21.2626Q160.008 20.9928 159.798 20.7479Q159.588 20.503 159.349 20.287Q159.109 20.0711 158.844 19.8877Q158.579 19.7043 158.292 19.5564Q158.006 19.4086 157.703 19.2988Q157.399 19.189 157.085 19.1191ZM0 108L48 0L156 24L192 132L187.209 133.437L72 168L0 108Z" fill="#808080" fill-rule="evenodd" />
    </g>
    <path d="M0 0L48 12L84 72" fill="none" stroke-width="2" stroke="#3D3D3D" stroke-linecap="round" transform="translate(60 36)" />
  </g>
</svg>