<?xml version="1.0" encoding="utf-8"?>
<svg width="50" height="46" viewBox="0 0 50 46" fill="none" xmlns="http://www.w3.org/2000/svg">
  <defs>
    <linearGradient id="gradient_1" gradientUnits="userSpaceOnUse" x1="0" y1="0" x2="48" y2="44">
      <stop offset="0" stop-color="#ED8936" />
      <stop offset="1" stop-color="#9C4221" />
    </linearGradient>
  </defs>
  <g transform="translate(1 1)">
    <path d="M4 20L16 0L40 4L48 28L32 44L0 40L4 20Z" fill="url(#gradient_1)" stroke-width="2" stroke="#7B341E" />
    <path d="M0 0L8 24L32 28" fill="none" stroke-width="1" stroke="#FFFFFF" stroke-opacity="0.298" transform="translate(16 0)" />
    <path d="M0 0L20 4L28 24" fill="none" stroke-width="1" stroke="#000000" stroke-opacity="0.2" transform="translate(4 20)" />
    <path d="M0 2C2.66667 -0.666666 5.33333 -0.666666 8 2C10.6667 4.66667 12.6667 4 14 0" fill="none" stroke-width="3" stroke="#38B2AC" stroke-linecap="round" transform="translate(8 14)" />
    <path d="M0 3C0 1.34315 1.34315 0 3 0C4.65685 0 6 1.34315 6 3C6 4.65685 4.65685 6 3 6C1.34315 6 0 4.65685 0 3Z" fill="#38B2AC" fill-rule="evenodd" fill-opacity="0.8" transform="translate(35 11)" />
    <path d="M0 2C0 0.895432 0.89543 0 2 0C3.10457 0 4 0.895432 4 2C4 3.10457 3.10457 4 2 4C0.89543 4 0 3.10457 0 2Z" fill="#38B2AC" fill-rule="evenodd" fill-opacity="0.8" transform="translate(26 34)" />
  </g>
</svg>