<?xml version="1.0" encoding="utf-8"?>
<svg width="54" height="58" viewBox="0 0 54 58" fill="none" xmlns="http://www.w3.org/2000/svg">
  <g transform="translate(1 1)">
    <path d="M0 4L0 2C0 1.44771 0.195262 0.976311 0.585786 0.585787C0.976311 0.195262 1.44772 0 2 0L42 0C42.5523 0 43.0237 0.195262 43.4142 0.585787C43.8047 0.976311 44 1.44771 44 2L44 42C44 42.5523 43.8047 43.0237 43.4142 43.4142C43.0237 43.8047 42.5523 44 42 44L2 44C1.44772 44 0.976311 43.8047 0.585786 43.4142C0.195262 43.0237 0 42.5523 0 42L0 4Z" fill="#E2E8F0" fill-rule="evenodd" stroke-width="2" stroke="#2D3748" transform="translate(4 12)" />
    <path d="M0 12L26 0L52 12L0 12Z" fill="#4A5568" stroke-width="2" stroke="#2D3748" stroke-linejoin="round" />
    <rect width="48" height="4" fill="#2D3748" fill-rule="evenodd" transform="translate(2 12)" />
    <rect width="12" height="12" fill="#2D3748" fill-rule="evenodd" stroke-width="2" stroke="#4A5568" transform="translate(10 22)" />
    <rect width="12" height="12" fill="#2D3748" fill-rule="evenodd" stroke-width="2" stroke="#4A5568" transform="translate(30 22)" />
    <path d="M0 0L8 0L0 8L8 8" fill="none" stroke-width="2" stroke="#63B3ED" stroke-linecap="round" stroke-linejoin="round" transform="translate(12 24)" />
    <rect width="12" height="16" fill="#718096" fill-rule="evenodd" stroke-width="2" stroke="#2D3748" transform="translate(12 40)" />
    <path d="M0 4.57143L0 2.28571C0 1.65453 0.195263 1.11578 0.585787 0.669472C0.976311 0.223156 1.44772 0 2 0L18 0C18.5523 0 19.0237 0.223156 19.4142 0.669472C19.8047 1.11578 20 1.65453 20 2.28571L20 13.7143C20 14.3455 19.8047 14.8842 19.4142 15.3305C19.0237 15.7768 18.5523 16 18 16L2 16C1.44772 16 0.976311 15.7768 0.585787 15.3305C0.195263 14.8842 0 14.3455 0 13.7143L0 4.57143Z" fill="#3182CE" fill-rule="evenodd" stroke-width="2" stroke="#2C5282" transform="translate(30 40)" />
    <rect width="2" height="4" fill="#FFFFFF" fill-rule="evenodd" transform="translate(38 46)" />
    <path d="M0 4L0 8L12 8L12 4M0 4L2 4L2 0L10 0L10 4L12 4" fill="none" stroke-width="2" stroke="#FFFFFF" stroke-linecap="round" transform="translate(34 45)" />
  </g>
</svg>