<?xml version="1.0" encoding="utf-8"?>
<svg width="256" height="256" viewBox="0 0 256 256" fill="none" xmlns="http://www.w3.org/2000/svg">
  <g>
    <path d="M0 32L0 16C0 11.5817 1.5621 7.81049 4.68629 4.68629C7.81049 1.5621 11.5817 0 16 0L96 0C100.418 0 104.19 1.5621 107.314 4.68629C110.438 7.81049 112 11.5817 112 16L112 176C112 180.418 110.438 184.189 107.314 187.314C104.19 190.438 100.418 192 96 192L16 192C11.5817 192 7.81049 190.438 4.68629 187.314C1.5621 184.189 0 180.418 0 176L0 32Z" fill="#111111" fill-rule="evenodd" stroke-width="2" stroke="#333333" transform="translate(72 40)" />
    <rect width="96" height="16" fill="#888888" fill-rule="evenodd" transform="translate(80 24)" />
    <g transform="translate(88.48 61.5)">
      <path d="M12.6297 4.30179L35.333 66.839L23.7916 109.228C23.32 110.959 22.3052 112.271 20.7471 113.162C19.1891 114.053 17.5441 114.263 15.8122 113.792C14.9806 113.565 14.2239 113.188 13.5422 112.661C12.8604 112.133 12.3056 111.495 11.8777 110.747C11.4497 109.999 11.1812 109.197 11.0721 108.342C10.9631 107.487 11.0217 106.644 11.2482 105.812L15.5951 89.8472L21.7068 67.4008L0.410043 8.73797C-0.202466 7.05078 -0.128766 5.39413 0.631144 3.768C1.39105 2.14187 2.6146 1.02255 4.30178 0.410044C5.98897 -0.202466 7.64563 -0.128766 9.27175 0.631145C10.8979 1.39105 12.0172 2.6146 12.6297 4.30179L12.6297 4.30179Z" fill="#A3E635" fill-rule="evenodd" transform="translate(0 7.98)" />
      <path d="M13 87.1667L13 6.5C13 4.70507 12.3654 3.17301 11.0962 1.90381C9.82699 0.634602 8.29493 0 6.5 0C4.70507 0 3.17301 0.634602 1.9038 1.90381C0.634598 3.17301 0 4.70507 0 6.5L0 127.5C0 129.295 0.634598 130.827 1.9038 132.096C3.17301 133.365 4.70507 134 6.5 134C8.29493 134 9.82699 133.365 11.0962 132.096C12.3654 130.827 13 129.295 13 127.5L13 87.1667L13 87.1667Z" fill="#A3E635" fill-rule="evenodd" transform="translate(33.02 0)" />
      <path d="M34.9229 8.73797L25.8495 33.7312L13.6262 67.4007L19.7379 89.8471L24.0848 105.812C24.5563 107.544 24.3465 109.189 23.4553 110.747C22.5641 112.305 21.2526 113.32 19.5207 113.792C17.7889 114.263 16.1439 114.053 14.5858 113.162C13.0278 112.271 12.013 110.959 11.5414 109.228L0 66.839L22.7033 4.30179C23.3158 2.6146 24.4351 1.39105 26.0612 0.631145C27.6874 -0.128766 29.344 -0.202466 31.0312 0.410044C31.8414 0.704181 32.5645 1.14215 33.2005 1.72395C33.8365 2.30576 34.3369 2.9871 34.7018 3.768C35.0668 4.54889 35.2684 5.36989 35.3067 6.23099C35.345 7.0921 35.2171 7.92775 34.9229 8.73797L34.9229 8.73797Z" fill="#A3E635" fill-rule="evenodd" transform="translate(43.707 7.98)" />
    </g>
  </g>
</svg>