<?xml version="1.0" encoding="utf-8"?>
<svg width="128" height="112.409" viewBox="0 0 128 112.409" fill="none" xmlns="http://www.w3.org/2000/svg">
  <g transform="translate(1 0)">
    <path d="M0 90C0 90 45 0 45 0L108 18L126 90C126 90 0 90 0 90Z" fill="#718096" stroke-width="2" stroke="#4A5568" transform="translate(0 20.25)" />
    <path d="M3.29831 5.72205e-06C5.12016 1.90735e-06 6.59662 1.47646 6.59663 3.29831L6.59662 102.101C6.59661 103.923 5.12016 105.4 3.29832 105.4L3.29832 105.4C1.47646 105.4 0 103.923 0 102.101L0 3.29831C0 1.47646 1.47646 0 3.29831 5.72205e-06Z" fill="#060606" transform="matrix(0.883 0.469 -0.469 0.883 68.947 16.25)" />
    <g transform="translate(65.25 0)">
      <path d="M0 11.25C0 5.0368 5.0368 0 11.25 0C17.4632 0 22.5 5.0368 22.5 11.25C22.5 17.4632 17.4632 22.5 11.25 22.5C5.0368 22.5 0 17.4632 0 11.25Z" />
      <path d="M11.25 0C5.0368 0 0 5.0368 0 11.25C0 17.4632 5.0368 22.5 11.25 22.5C17.4632 22.5 22.5 17.4632 22.5 11.25C22.5 5.0368 17.4632 0 11.25 0ZM6.83058 15.6694Q5 13.8388 5 11.25Q5 8.66116 6.83058 6.83058Q8.66116 5 11.25 5Q13.8388 5 15.6694 6.83058Q17.5 8.66116 17.5 11.25Q17.5 13.8388 15.6694 15.6694Q13.8388 17.5 11.25 17.5Q8.66116 17.5 6.83058 15.6694Z" fill="#060606" fill-rule="evenodd" />
    </g>
    <rect width="9" height="103.5" fill="#061E46" fill-rule="evenodd" transform="translate(72 6.75)" />
    <rect width="45" height="9" fill="#061E46" fill-rule="evenodd" transform="translate(36 6.75)" />
  </g>
</svg>