<?xml version="1.0" encoding="utf-8"?>
<svg width="38" height="60" viewBox="0 0 38 60" fill="none" xmlns="http://www.w3.org/2000/svg">
  <g transform="translate(0 -0)">
    <g transform="translate(0 7)">
      <path d="M3.8147e-06 0C3.8147e-06 0 0 40.4494 0 40.4494C0 47.738 8.34146 48 16.6829 48C25.0244 48 33.3658 47.738 33.3658 40.4494C33.3658 40.4494 33.3659 0 33.3659 0" fill="#FFFFFF" transform="matrix(1 0 0 1 2.317 2.5)" />
      <path d="M3.9555 0.732234C4.17276 0.966654 4.34019 1.23701 4.45777 1.54329C4.57536 1.84958 4.63415 2.16848 4.63415 2.5L4.63415 42.9494C4.63415 44.9506 5.81427 46.3196 8.17452 47.0565C10.1894 47.6855 13.7979 48 19 48C24.2021 48 27.8106 47.6855 29.8255 47.0564C32.1857 46.3196 33.3658 44.9506 33.3658 42.9494L33.3658 2.5C33.3658 2.16848 33.4246 1.84958 33.5422 1.54329C33.6598 1.23701 33.8272 0.966654 34.0445 0.732233C34.2618 0.497813 34.5123 0.317169 34.7962 0.190301C35.0801 0.0634337 35.3757 0 35.6829 0C36.3228 2.38419e-07 36.8689 0.244078 37.3213 0.732233C37.7738 1.22039 38 1.80964 38 2.5L38 42.9494C38 47.4561 35.7045 50.4261 31.1135 51.8594C28.6779 52.6198 24.6401 53 19 53C13.3599 53 9.32206 52.6198 6.88645 51.8594C2.29548 50.4261 0 47.4561 0 42.9494L3.75655e-06 2.5C3.97752e-06 1.80964 0.226222 1.22039 0.678659 0.732233C1.1311 0.244078 1.67724 0 2.31708 0C2.62434 2.38419e-07 2.91991 0.0634339 3.20378 0.190301C3.48766 0.317169 3.73823 0.497813 3.9555 0.732234L3.9555 0.732234Z" fill="#2458CF" fill-rule="evenodd" />
      <path d="M0 0C0 7.54286 7.50732 8 16.6829 8C25.8585 8 33.3659 7.54286 33.3659 0" fill="#FFFFFF" transform="matrix(1 0 0 1 2.317 24.5)" />
      <path d="M2.31707 0C2.95692 0 3.50305 0.244078 3.95549 0.732231C4.40793 1.22039 4.63415 1.80964 4.63415 2.5C4.63415 4.69825 5.7334 6.18169 7.93192 6.95031C9.93357 7.6501 13.6229 8 19 8C24.3771 8 28.0664 7.6501 30.0681 6.95031C32.2666 6.18169 33.3659 4.69825 33.3659 2.5C33.3659 1.80964 33.5921 1.22039 34.0445 0.732231C34.4969 0.244078 35.0431 0 35.6829 0C36.3228 0 36.8689 0.244078 37.3213 0.732231C37.7738 1.22039 38 1.80964 38 2.5C38 7.12212 35.8322 10.1911 31.4966 11.7068C29.0306 12.5689 24.8651 13 19 13C13.1349 13 8.96937 12.5689 6.50344 11.7068C2.16781 10.1911 0 7.12212 0 2.5C0 1.80964 0.226218 1.22039 0.678655 0.732231C1.13109 0.244078 1.67723 0 2.31707 0L2.31707 0Z" fill="#2458CF" fill-rule="evenodd" transform="translate(0 22)" />
    </g>
    <g>
      <path d="M0 7.08323C0 1.66667 6.96366 0 16.1774 0C25.3911 0 33.3659 1.66667 33.3659 7.08323C33.3659 12.4998 16.6829 11.987 16.6829 11.987C16.6829 11.987 0 12.4998 0 7.08323Z" fill="#FFFFFF" fill-rule="evenodd" transform="matrix(1 0 0 1 2.317 2.5)" />
      <path d="M0 9.58323C0 5.85404 2.06143 3.21 6.1843 1.65109C9.09541 0.550363 13.1988 8.60696e-15 18.4945 8.60696e-15C31.4982 1.19209e-06 38 3.19441 38 9.58323C38 13.3159 34.5407 15.6374 27.622 16.5479C24.7484 16.9261 21.8744 17.0728 19 16.988C16.1256 17.0728 13.2516 16.9261 10.378 16.5479C3.45933 15.6374 -1.10487e-06 13.3159 0 9.58323L0 9.58323ZM4.63415 9.58324C4.63415 10.3644 6.73579 11.0316 10.9391 11.5847C13.6045 11.9355 16.2694 12.0699 18.934 11.988C18.956 11.9873 18.978 11.987 19 11.987C19.022 11.987 19.044 11.9873 19.066 11.988C21.7305 12.0699 24.3955 11.9355 27.0609 11.5847C31.2642 11.0316 33.3659 10.3644 33.3659 9.58323C33.3659 6.52775 28.4087 5 18.4945 5C10.0476 5 5.46161 6.27665 4.73634 8.82996C4.66821 9.06979 4.63415 9.32088 4.63415 9.58324L4.63415 9.58324Z" fill="#2458CF" fill-rule="evenodd" />
      <path d="M0 10.6667C0 13.5111 2.37886 16 5.09756 16C7.81626 16 10.1951 13.5111 10.1951 10.6667C10.1951 5.33333 5.09756 0 5.09756 0C5.09756 0 0 5.33333 0 10.6667Z" fill="#000000" transform="translate(13.902 20)" />
    </g>
  </g>
</svg>