<?xml version="1.0" encoding="utf-8"?>
<svg width="61" height="52" viewBox="0 0 61 52" fill="none" xmlns="http://www.w3.org/2000/svg">
  <g transform="translate(1 1)">
    <g fill="#F6E05E" fill-rule="evenodd" transform="translate(0 24)">
      <path d="M0 26C17.3333 -8.66667 34.6667 -8.66667 52 26C52 26 0 26 0 26Z" />
      <path d="M26.618 -1Q13 -1 -0.276393 25.5528L-1 27L54.2361 27L53.5125 25.5528Q40.2361 -1 26.618 -1ZM1.12294 25Q0.870486 25.4951 0.618034 26L52.618 26Q52.3656 25.495 52.1131 25Q39.3656 -3.8147e-06 26.618 -3.8147e-06Q13.8705 -3.8147e-06 1.12294 25Z" fill="#303030" fill-rule="evenodd" />
    </g>
    <g fill="#ECC94B" fill-rule="evenodd" transform="translate(24 36)">
      <path d="M0 14C11.6667 -4.66667 23.3333 -4.66667 35 14C35 14 0 14 0 14Z" />
      <path d="M18.3042 -1Q8.99999 -1 -0.0437508 13.47L-1 15L37.6085 15L36.6522 13.47Q27.6085 -1 18.3042 -1ZM1.44082 13Q1.12255 13.4907 0.804247 14L35.8042 14Q35.4859 13.4907 35.1677 13Q26.736 0 18.3042 0Q9.87253 0 1.44082 13Z" fill="#303030" fill-rule="evenodd" />
    </g>
    <g transform="translate(2 0)">
      <g fill="#8B4513" fill-rule="evenodd">
        <path d="M0 3.29412L3.29407 0L19.7647 16.4706L16.4706 19.7647L0 3.29412Z" />
        <path d="M3.70827 -1L-0.292905 3.00124L-1 3.70835L16.8848 21.5932L21.5931 16.8848L3.70827 -1ZM0.414208 3.70834L1.12132 4.41544L16.1777 19.4718L16.8848 20.1789L17.5919 19.4718L19.4718 17.5919L20.1789 16.8848L19.4718 16.1777L4.41538 1.12133L3.70827 0.414219L3.00117 1.12133L0.414208 3.70834Z" fill="#303030" fill-rule="evenodd" />
      </g>
      <g fill="#718096" fill-rule="evenodd" transform="translate(14.823 14.824)">
        <path d="M0 6.58825L6.58814 0C6.58814 0 13.1766 6.58825 13.1766 6.58825C13.1766 10.9804 10.9803 13.1765 6.58814 13.1765C6.58814 13.1765 0 6.58825 0 6.58825Z" />
        <path d="M7.00232 -1L-0.292911 6.29536L-1 7.00246L6.58812 14.5907L7.00234 14.5907Q14.5908 14.5907 14.5908 7.00246L14.5908 6.58824L7.00232 -1ZM0.414202 7.00246L1.12131 7.70956L7.00234 13.5907C11.3945 13.5907 13.5908 11.3946 13.5908 7.00246L7.70946 1.12131L7.00234 0.41421L6.29524 1.12132L1.1213 6.29534L0.414202 7.00246Z" fill="#303030" fill-rule="evenodd" />
      </g>
    </g>
  </g>
</svg>