<?xml version="1.0" encoding="utf-8"?>
<svg width="123" height="118.875" viewBox="0 0 123 118.875" fill="none" xmlns="http://www.w3.org/2000/svg">
  <g transform="translate(0 1)">
    <path d="M0 10.25L0 5.125C0 3.70977 0.500359 2.50179 1.50108 1.50108C2.5018 0.500359 3.70977 0 5.125 0L117.875 0C119.29 0 120.498 0.500359 121.499 1.50108C122.5 2.50179 123 3.70977 123 5.125L123 25.625C123 27.0402 122.5 28.2482 121.499 29.2489C120.498 30.2496 119.29 30.75 117.875 30.75L5.125 30.75C3.70977 30.75 2.5018 30.2496 1.50108 29.2489C0.500359 28.2482 0 27.0402 0 25.625L0 10.25Z" fill="#C05621" fill-rule="evenodd" transform="translate(0 66.625)" />
    <path d="M0 7.6875C0 3.44181 3.44181 0 7.6875 0C11.9332 0 15.375 3.44181 15.375 7.6875C15.375 11.9332 11.9332 15.375 7.6875 15.375C3.44181 15.375 0 11.9332 0 7.6875Z" fill="#7B341E" fill-rule="evenodd" transform="translate(7.688 74.313)" />
    <path d="M0 35.875C0 16.0618 16.0618 0 35.875 0C55.6882 0 71.75 16.0618 71.75 35.875C71.75 55.6882 55.6882 71.75 35.875 71.75C16.0618 71.75 0 55.6882 0 35.875Z" fill="#CBD5E0" fill-rule="evenodd" stroke-width="2" stroke="#718096" transform="translate(25.625 10.25)" />
    <path d="M0 7.6875C0 3.44181 3.44181 0 7.6875 0C11.9332 0 15.375 3.44181 15.375 7.6875C15.375 11.9332 11.9332 15.375 7.6875 15.375C3.44181 15.375 0 11.9332 0 7.6875Z" fill="#2D3748" fill-rule="evenodd" transform="translate(53.813 38.438)" />
    <path d="M46.125 10.25L56.375 0M82 46.125L92.25 35.875M46.125 82L35.875 92.25M10.25 46.125L0 56.375" fill="none" stroke-width="2" stroke="#718096" transform="translate(15.375 0)" />
    <rect width="10.25" height="20.5" fill="#4A5568" fill-rule="evenodd" transform="translate(20.5 97.375)" />
    <rect width="10.25" height="20.5" fill="#4A5568" fill-rule="evenodd" transform="translate(92.25 97.375)" />
  </g>
</svg>